<?xml version="1.0" standalone="no"?>
<!DOCTYPE svg PUBLIC "-//W3C//DTD SVG 20010904//EN"
 "http://www.w3.org/TR/2001/REC-SVG-20010904/DTD/svg10.dtd">
<svg version="1.0" xmlns="http://www.w3.org/2000/svg"
 width="500.000000pt" height="500.000000pt" viewBox="0 0 500.000000 500.000000"
 preserveAspectRatio="xMidYMid meet">
<metadata>
Created by potrace 1.14, written by Peter Selinger 2001-2017
</metadata>
<g transform="translate(0.000000,500.000000) scale(0.100000,-0.100000)"
fill="#000000" stroke="none">
<path d="M657 3494 c-1 -1 -31 -5 -67 -8 -92 -9 -198 -62 -227 -113 -36 -65
-52 -141 -58 -273 -13 -288 -20 -341 -54 -408 -30 -58 -75 -89 -146 -99 -51
-6 -47 5 -49 -136 0 -49 1 -93 4 -97 3 -5 21 -12 39 -15 69 -12 123 -50 151
-105 35 -69 41 -115 54 -415 9 -202 61 -298 190 -347 33 -12 68 -24 76 -25 30
-5 117 -13 178 -18 l62 -4 1 49 c0 28 1 66 1 85 0 19 -1 50 -1 69 l-1 34 -57
5 c-100 8 -127 20 -147 65 -11 26 -18 78 -21 172 -6 153 -12 246 -18 275 -23
103 -64 176 -124 223 -19 15 -45 35 -56 44 l-22 18 30 22 c46 34 103 97 129
145 37 65 49 134 61 338 12 215 14 228 42 252 28 22 73 35 135 37 20 1 39 4
42 6 5 6 8 79 7 166 l-1 62 -76 -2 c-42 0 -76 -2 -77 -2z"/>
<path d="M4170 3384 c0 -102 2 -114 18 -115 87 -5 114 -9 139 -22 53 -28 64
-56 69 -192 13 -337 29 -408 114 -493 32 -31 69 -65 84 -75 l26 -18 -47 -36
c-59 -45 -77 -66 -108 -126 -35 -66 -54 -145 -60 -257 -11 -190 -22 -291 -35
-325 -13 -33 -44 -47 -115 -52 -91 -6 -86 2 -83 -125 l3 -113 60 0 c124 0 261
31 328 75 40 27 82 99 92 159 3 19 8 37 10 41 5 9 13 110 20 275 3 66 8 131
10 145 22 122 68 176 180 210 l50 16 0 109 c1 66 -3 113 -10 117 -5 4 -21 8
-35 8 -40 0 -112 42 -136 78 -34 50 -53 152 -59 318 -7 197 -11 227 -39 315
-42 132 -152 187 -388 194 l-88 3 0 -114z"/>
<path d="M1487 3394 c-1 -1 -27 -4 -57 -7 -133 -15 -273 -74 -347 -147 -123
-122 -142 -340 -42 -486 23 -34 55 -65 125 -123 38 -31 188 -88 369 -140 116
-32 230 -68 255 -79 87 -37 120 -91 114 -184 -9 -135 -116 -208 -305 -208
-110 0 -195 28 -253 84 -45 45 -96 130 -96 163 0 22 -28 65 -38 59 -4 -2 -36
-6 -72 -10 -98 -10 -183 -19 -200 -21 -22 -3 -14 -83 16 -164 94 -250 309
-367 659 -356 211 6 349 42 453 120 67 49 92 80 128 160 60 138 45 327 -37
456 -65 101 -204 167 -568 269 -208 58 -266 88 -290 153 -31 81 0 152 84 192
46 23 70 27 152 29 116 3 168 -11 231 -62 42 -33 82 -102 85 -146 1 -17 10
-18 137 -12 74 3 149 5 166 6 31 0 32 1 28 42 -22 227 -178 367 -449 404 -44
6 -243 12 -248 8z"/>
<path d="M2449 3355 c-2 -29 -4 -1542 -2 -1550 2 -7 59 -10 151 -10 l147 0 5
615 c3 404 8 601 14 575 5 -22 10 -44 12 -50 9 -36 193 -758 236 -927 37 -147
57 -208 68 -210 8 -2 82 -4 164 -3 125 0 150 2 152 15 1 8 27 112 57 230 31
118 99 386 152 595 53 209 99 382 101 385 3 2 4 -50 4 -115 -1 -66 -1 -343 -1
-615 l1 -495 150 0 c93 0 150 4 150 10 1 15 1 1506 1 1535 l-1 25 -240 0
c-146 0 -243 -4 -248 -10 -5 -6 -18 -46 -30 -90 -12 -44 -50 -190 -86 -325
-36 -135 -86 -324 -112 -420 -50 -188 -52 -198 -53 -219 -2 -39 -26 39 -122
399 -11 41 -45 165 -75 275 -29 110 -65 243 -79 295 l-26 95 -245 0 c-157 0
-244 -3 -245 -10z"/>
</g>
</svg>
